<svg width="16" height="16" viewBox="0 0 16 16" fill="none" xmlns="http://www.w3.org/2000/svg">
<path d="M4.16668 14.6666V6.66662C4.16668 6.39048 4.39053 6.16662 4.66668 6.16662C4.94282 6.16662 5.16668 6.39048 5.16668 6.66662V14.6666C5.16668 14.9428 4.94282 15.1666 4.66668 15.1666C4.39053 15.1666 4.16668 14.9428 4.16668 14.6666Z" fill="#525252"/>
<path d="M8.00652 0.83329C8.3961 0.838163 8.77958 0.930948 9.12827 1.10477C9.47707 1.27867 9.78179 1.52952 10.0202 1.83785C10.2586 2.14616 10.4247 2.50406 10.5052 2.88537C10.5857 3.26665 10.5791 3.66134 10.4857 4.03967L10.485 4.03902L9.96876 6.16662H13.2201C13.5046 6.16663 13.7852 6.23278 14.0397 6.35998C14.2943 6.48725 14.5161 6.67204 14.6869 6.8997C14.8576 7.12733 14.9725 7.39189 15.0234 7.67183C15.0743 7.95177 15.0595 8.23982 14.9798 8.51298L13.4264 13.8463C13.3154 14.2271 13.0842 14.5621 12.7669 14.8001C12.4496 15.0381 12.0634 15.1666 11.6667 15.1666H2.66668C2.18045 15.1666 1.71427 14.9733 1.37045 14.6295C1.02664 14.2857 0.833344 13.8195 0.833344 13.3333V7.99996C0.833344 7.51373 1.02664 7.04755 1.37045 6.70373C1.71427 6.35992 2.18045 6.16662 2.66668 6.16662H4.50652L4.62176 6.15881C4.73611 6.14277 4.84647 6.10292 4.94532 6.04162C5.07694 5.95998 5.18298 5.84305 5.25196 5.70438L7.55274 1.10933L7.5892 1.04813C7.68297 0.912999 7.83901 0.831216 8.00652 0.83329ZM1.83334 13.3333C1.83334 13.5543 1.9212 13.7662 2.07748 13.9225C2.23376 14.0788 2.44566 14.1666 2.66668 14.1666H11.6667C11.847 14.1666 12.0224 14.1081 12.1667 14C12.3109 13.8918 12.4163 13.7395 12.4668 13.5664L14.0202 8.23368C14.0563 8.10957 14.0628 7.97805 14.0397 7.85087C14.0166 7.72361 13.9643 7.60343 13.8867 7.49996C13.8091 7.39646 13.7082 7.31237 13.5925 7.25451C13.4768 7.19674 13.3493 7.16663 13.2201 7.16662H9.33334C9.17999 7.16662 9.03491 7.09641 8.94011 6.97587C8.84533 6.85532 8.81151 6.69781 8.84767 6.54879L9.51433 3.80204V3.80009C9.57164 3.56798 9.57609 3.32567 9.5267 3.09175C9.4773 2.85794 9.37536 2.63824 9.22918 2.44918C9.08301 2.26018 8.89611 2.10659 8.6823 1.99996C8.55842 1.93819 8.42711 1.89344 8.29233 1.86584L6.14715 6.15035C5.99535 6.45525 5.76149 6.71172 5.47202 6.89123C5.18222 7.07093 4.84815 7.1664 4.50717 7.16662H2.66668C2.44566 7.16662 2.23376 7.25448 2.07748 7.41076C1.9212 7.56704 1.83334 7.77894 1.83334 7.99996V13.3333Z" fill="#525252"/>
</svg>
