<svg width="16" height="16" viewBox="0 0 16 16" fill="none" xmlns="http://www.w3.org/2000/svg">
<path d="M14.1667 5.99984C14.1667 5.77882 14.0788 5.56693 13.9225 5.41064C13.7662 5.25436 13.5543 5.1665 13.3333 5.1665H11.3333C11.185 5.1665 11.0442 5.10073 10.9492 4.98682L9.43229 3.1665H6.56771L5.05078 4.98682C4.95579 5.10073 4.815 5.1665 4.66667 5.1665H2.66667C2.44566 5.1665 2.23376 5.25436 2.07748 5.41064C1.9212 5.56692 1.83334 5.77882 1.83334 5.99984V11.9998C1.83334 12.2209 1.9212 12.4327 2.07748 12.589C2.23376 12.7453 2.44566 12.8332 2.66667 12.8332H13.3333C13.5543 12.8332 13.7662 12.7453 13.9225 12.589C14.0788 12.4327 14.1667 12.2209 14.1667 11.9998V5.99984ZM15.1667 11.9998C15.1667 12.4861 14.9734 12.9522 14.6296 13.2961C14.2857 13.6399 13.8196 13.8332 13.3333 13.8332H2.66667C2.18044 13.8332 1.71426 13.6399 1.37045 13.2961C1.02663 12.9522 0.833336 12.4861 0.833336 11.9998V5.99984C0.833336 5.51361 1.02663 5.04743 1.37045 4.70361C1.71426 4.3598 2.18044 4.1665 2.66667 4.1665H4.43229L5.94922 2.34619L5.98698 2.30583C6.07958 2.2169 6.20354 2.1665 6.33334 2.1665H9.66667C9.815 2.1665 9.95579 2.23227 10.0508 2.34619L11.5677 4.1665H13.3333C13.8196 4.1665 14.2857 4.3598 14.6296 4.70361C14.9734 5.04743 15.1667 5.51361 15.1667 5.99984V11.9998Z" fill="#525252"/>
<path d="M9.5 8.6665C9.5 7.83808 8.82843 7.1665 8 7.1665C7.17158 7.1665 6.5 7.83808 6.5 8.6665C6.5 9.49493 7.17158 10.1665 8 10.1665C8.82843 10.1665 9.5 9.49493 9.5 8.6665ZM10.5 8.6665C10.5 10.0472 9.38071 11.1665 8 11.1665C6.61929 11.1665 5.5 10.0472 5.5 8.6665C5.5 7.28579 6.61929 6.1665 8 6.1665C9.38071 6.1665 10.5 7.28579 10.5 8.6665Z" fill="#525252"/>
</svg>
